<svg width="1440" height="80" viewBox="0 0 1440 80" fill="none" xmlns="http://www.w3.org/2000/svg">
    <mask id="path-1-inside-1_621_11693" fill="white">
        <path d="M0 0H1440V80H0V0Z"/>
    </mask>
    <path d="M0 0H1440V80H0V0Z" fill="#F3F3F3"/>
    <path d="M1440 79H0V81H1440V79Z" fill="#E5E5E5" mask="url(#path-1-inside-1_621_11693)"/>
    <rect x="17" y="13" width="54" height="54" rx="7" stroke="#00987F" stroke-width="2"/>
    <path d="M35 34H53V36H35V34ZM35 39H53V41H35V39ZM35 44H53V46H35V44Z" fill="#00987F"/>
    <g clip-path="url(#clip0_621_11693)">
        <path d="M113.481 59.6565C113.481 60.5455 113.815 61.7819 114.208 63.1188L113.979 63.1908C113.417 61.6989 113.106 60.8513 112.201 59.4205L106.534 50.9821H104V65.6942H106.536V57.6446C106.536 56.2051 106.296 54.7437 105.881 53.4658L106.11 53.385C106.545 54.7546 107.108 56.1548 108.033 57.5747L113.481 65.6964H116.018V50.9843H113.481V59.6586V59.6565Z" fill="#494345"/>
        <path d="M123.889 54.3527C122.787 54.3527 121.82 54.5973 120.977 55.0888C119.303 56.0696 118.305 57.8587 118.305 60.1763C118.305 61.3101 118.534 62.3214 119.001 63.1908C119.917 64.9471 121.642 66 123.887 66C125.01 66 125.997 65.7553 126.839 65.2551C128.524 64.2743 129.491 62.4656 129.491 60.1785C129.491 59.0448 129.263 58.0334 128.805 57.1553C127.88 55.4078 126.144 54.3571 123.887 54.3571L123.889 54.3527ZM123.889 63.6911C121.967 63.6911 120.957 62.3127 120.957 60.1763C120.957 58.04 121.935 56.6616 123.889 56.6616C125.843 56.6616 126.842 58.04 126.842 60.1763C126.842 62.3127 125.886 63.6911 123.889 63.6911Z" fill="#494345"/>
        <path d="M143.926 54.3833C143.177 54.3833 142.512 54.5559 141.94 54.8944C140.916 55.5061 140.664 56.465 140.618 57.7233H140.391V57.4065C140.391 56.8342 140.278 56.323 140.058 55.8731C139.6 54.984 138.737 54.3811 137.23 54.3811C136.472 54.3811 135.805 54.5449 135.245 54.8726C134.562 55.2767 134.051 55.8796 133.753 56.6092H133.455C133.726 56.2313 133.975 55.5061 133.975 54.9753V54.6585H131.761V65.692H134.289V58.8985C134.289 57.5201 135.14 56.5786 136.398 56.5786C137.719 56.5786 138.53 57.4786 138.53 59.0208V65.692H141.025V58.9291C141.025 57.448 141.909 56.5786 143.145 56.5786C144.446 56.5786 145.266 57.4786 145.266 58.9902V65.692H147.772V58.3677C147.772 55.9866 146.409 54.3833 143.923 54.3833H143.926Z" fill="#494345"/>
        <path d="M154.999 54.3527C152.347 54.3527 150.341 55.4253 150.257 58.0509L152.782 58.0924C152.833 57.0395 153.989 56.6114 154.996 56.6114C156.601 56.6114 157.259 57.234 157.302 58.7172C156.897 58.7106 156.533 58.7062 156.215 58.7062C155.123 58.7062 153.823 58.6647 152.315 59.1868C150.599 59.7591 149.85 61.0676 149.85 62.671C149.85 63.2739 149.997 63.8353 150.286 64.3355C150.857 65.3469 151.991 66 153.614 66C155.641 66 156.795 65.3556 158.095 63.4857L158.313 63.6583C157.96 64.1083 157.555 64.792 157.555 65.3032V65.692H159.749V58.9181C159.749 57.9679 159.729 57.1815 159.322 56.4039C158.584 54.9425 157.004 54.3505 154.996 54.3505L154.999 54.3527ZM157.015 62.21C156.933 62.4656 156.775 62.7299 156.537 63.0074C156.059 63.5797 155.248 64.0384 154.114 64.0384C152.98 64.0384 152.304 63.4552 152.304 62.6382C152.304 61.9436 152.731 61.4018 153.54 61.013C153.852 60.8797 154.205 60.7989 154.612 60.7683C155.257 60.7094 156.106 60.6875 157.259 60.7181C157.248 61.1856 157.204 61.7513 157.013 62.2079L157.015 62.21Z" fill="#494345"/>
        <path d="M165.167 50.7266H162.661V52.9852H165.167V50.7266Z" fill="#494345"/>
        <path d="M165.167 54.6607H162.661V65.6942H165.167V54.6607Z" fill="#494345"/>
        <path d="M171 50.6763H168.495V65.6942H171V50.6763Z" fill="#494345"/>
        <path d="M150.644 18.832L150.501 18.9718C148.683 20.7586 145.937 21.1649 143.601 20.112C141.854 19.3256 139.871 18.9543 137.783 19.1225C132.148 19.5768 127.604 24.0746 127.179 29.6142C127.042 31.4186 127.328 33.1377 127.953 34.6908C128.389 35.7699 128.309 36.9844 127.811 38.0373L126.197 41.4407C123.42 38.365 121.795 34.2583 121.989 29.7802C122.358 21.3397 129.307 14.45 137.892 14.0219C142.874 13.7728 147.414 15.658 150.644 18.832Z" fill="#DA6927"/>
        <path d="M155.55 31.1389C155.228 39.5795 148.312 46.5019 139.729 46.9738C134.718 47.249 130.145 45.3573 126.895 42.1681L127.035 42.0304C128.851 40.2458 131.592 39.8351 133.926 40.8858C135.687 41.6787 137.686 42.0523 139.789 41.8753C145.417 41.4035 149.943 36.8992 150.355 31.3618C150.488 29.5662 150.199 27.8536 149.577 26.3048C149.143 25.2301 149.221 24.0177 149.719 22.9692L151.337 19.5594C154.098 22.6197 155.719 26.6893 155.548 31.1389H155.55Z" fill="#00967D"/>
        <path d="M133.94 35.5908C135.848 35.5908 137.394 34.071 137.394 32.1962C137.394 30.3214 135.848 28.8016 133.94 28.8016C132.032 28.8016 130.485 30.3214 130.485 32.1962C130.485 34.071 132.032 35.5908 133.94 35.5908Z" fill="#F4B826"/>
        <path d="M143.596 32.1984C145.504 32.1984 147.051 30.6786 147.051 28.8038C147.051 26.929 145.504 25.4092 143.596 25.4092C141.689 25.4092 140.142 26.929 140.142 28.8038C140.142 30.6786 141.689 32.1984 143.596 32.1984Z" fill="#88CCA7"/>
    </g>
    <defs>
        <clipPath id="clip0_621_11693">
            <rect width="67" height="52" fill="white" transform="translate(104 14)"/>
        </clipPath>
    </defs>
</svg>
